<?xml version="1.0" encoding="UTF-8" standalone="no"?>
<!DOCTYPE svg PUBLIC "-//W3C//DTD SVG 1.1//EN" "http://www.w3.org/Graphics/SVG/1.1/DTD/svg11.dtd">
<svg width="100%" height="100%" viewBox="0 0 344 171" version="1.1" xmlns="http://www.w3.org/2000/svg" xmlns:xlink="http://www.w3.org/1999/xlink" xml:space="preserve" xmlns:serif="http://www.serif.com/" style="fill-rule:evenodd;clip-rule:evenodd;stroke-linejoin:round;stroke-miterlimit:2;">
    <g transform="matrix(0.400702,0,0,0.400702,0,0)">
        <path d="M603.171,0L414.555,231.271L518.622,426L285.564,426L260.934,379.913L223.348,426L0,426L172.517,214.469L57.9,0L290.959,0L326.138,65.827L379.824,0L603.171,0Z" style="fill:rgb(57,57,57);"/>
    </g>
    <g transform="matrix(0.400702,0,0,0.400702,102.11,0)">
        <path d="M603.171,0L414.555,231.271L518.622,426L285.564,426L260.934,379.913L223.348,426L0,426L172.517,214.469L57.9,0L290.959,0L326.138,65.827L379.824,0L603.171,0Z" style="fill-opacity:0.17;"/>
    </g>
</svg>
